# xmcd CD database file
#
# Track frame offsets:
#	150
#	18097
#	27847
#	40290
#	51242
#	61939
#	74845
#	85235
#	97970
#	109460
#
# Disc length: 1691 seconds
#
# Revision: 2
# Processed by: cddbd v1.4b41PL1 Copyright (c) Steve Scherf et al.
# Submitted via: Feurio! 1.60 - http://www.feurio.com
#
DISCID=8406990a,8f06990a
DTITLE=La Sierreña - El Cuervo
DYEAR=1900
DGENRE=
TTITLE0=El Cuervo
TTITLE1=Tres flores
TTITLE2=Vida Prestada
TTITLE3=El Tarachi
TTITLE4=El Gandareño
TTITLE5=El Corrido del Siji
TTITLE6=Ella
TTITLE7=Domingo Corrales
TTITLE8=Caballo Bayo
TTITLE9=Los Caballos que corrieron
EXTD=
EXTT0=
EXTT1=
EXTT2=
EXTT3=
EXTT4=
EXTT5=
EXTT6=
EXTT7=
EXTT8=
EXTT9=
PLAYORDER=
